<svg width="42" height="42" viewBox="0 0 42 42" fill="none" xmlns="http://www.w3.org/2000/svg">
<g clip-path="url(#clip0_6_21)">
<path d="M35.7 0H6.3C2.82061 0 0 2.82061 0 6.3V35.7C0 39.1794 2.82061 42 6.3 42H35.7C39.1794 42 42 39.1794 42 35.7V6.3C42 2.82061 39.1794 0 35.7 0Z" fill="black"/>
<path d="M17.4727 9.10547L8.69531 16.8164H14.3555C14.7656 20.5078 17.7188 22.0664 20.7539 22.3125C20.1797 23.7891 20.4258 24.5273 21.3281 25.5117C17.8008 25.5938 12.8789 27.6445 12.8789 31.0078C13.207 34.6992 18.0469 35.4375 20.4258 35.4375C23.543 35.5195 27.0703 33.8789 27.8086 31.0078C28.1367 28.1367 26.9883 26.5781 25.2656 25.1836C23.3789 23.707 22.9688 22.8867 23.543 21.9023C24.7734 20.5078 26.4141 19.6875 26.7422 17.7188C26.9062 16.3242 26.5781 15.4219 26.25 14.1914L29.9414 11.0742L29.8594 12.3867C29.6133 12.5508 29.4492 12.8789 29.4492 13.125V21.5742C29.6133 22.6406 31.2539 22.4766 31.3359 21.5742V13.125C31.3359 12.8789 31.1719 12.5508 30.9258 12.4688V10.418L32.2383 9.10547H17.4727ZM22.2305 20.6719C17.2266 21.4922 15.0938 13.5352 19.1133 12.5508C23.707 11.6484 25.9219 19.6055 22.2305 20.6719ZM21.8203 26.6602C26.7422 27.7266 26.8242 31.8281 22.6406 33.0586C19.0312 33.7969 15.9141 32.7305 15.9961 30.5977C15.9961 28.5469 18.8672 26.6602 21.8203 26.6602Z" fill="white"/>
</g>
<defs>
<clipPath id="clip0_6_21">
<rect width="42" height="42" fill="white"/>
</clipPath>
</defs>
</svg>
